Coordinates
version=1
nRows=14
nColumns=24
inDegrees=yes

Units are S.I. units (second, meters, Newtons, ...)
Angles are in degrees.

endheader
time	pelvis_tilt	pelvis_list	pelvis_rotation	pelvis_tx	pelvis_ty	pelvis_tz	hip_flexion_r	hip_adduction_r	hip_rotation_r	knee_angle_r	ankle_angle_r	subtalar_angle_r	mtp_angle_r	hip_flexion_l	hip_adduction_l	hip_rotation_l	knee_angle_l	ankle_angle_l	subtalar_angle_l	mtp_angle_l	lumbar_extension	lumbar_bending	lumbar_rotation
      4.12000000	    -10.91068802	      0.68199710	      2.09434143	     -1.83380528	     -0.02022644	     -0.71971176	     32.49228213	     -2.74539914	    -12.89274727	    -11.12699338	     -2.61320138	     -4.64783027	     13.46579093	     -3.26079994	      1.26926164	    -15.46422446	    -14.21669928	      9.59676004	      7.10800303	      4.34491356	      6.53233089	      1.97912584	     -9.20363584
      4.12500000	    -10.93989704	      0.54677371	      2.09112182	     -1.82760396	     -0.02078334	     -0.71881611	     32.53852356	     -2.54791314	    -12.51077861	    -11.78504096	     -3.17783816	     -5.55183817	     12.79837568	     -3.22666006	      0.91645705	    -15.33788066	    -14.99175533	      9.29686593	      7.21035647	      4.29931966	      6.68816096	      2.18079710	     -9.26255027
      4.13000000	    -10.95954463	      0.49336320	      1.95465664	     -1.82150787	     -0.02134473	     -0.71762553	     32.62467107	     -2.33615011	    -11.84357026	    -12.52914194	     -3.65168775	     -6.47998104	     11.13887627	     -3.17920050	      0.62638470	    -15.48000276	    -15.82023785	      8.97144889	      7.47284848	      4.24597955	      6.80239791	      2.30087945	     -9.16344002
      4.13500000	    -11.01309888	      0.29522154	      1.91698888	     -1.81524405	     -0.02180385	     -0.71663218	     32.70374872	     -2.07069454	    -11.56845029	    -13.23176721	     -4.15144072	     -7.16958532	      9.60101411	     -3.05921670	      0.19301366	    -15.36924777	    -16.69453491	      8.57959895	      7.52270128	      4.25944845	      6.99382449	      2.57563174	     -9.17528595
      4.14000000	    -11.03458906	      0.08737067	      1.98503616	     -1.80897808	     -0.02211491	     -0.71583746	     32.72483405	     -1.90024208	    -11.65170241	    -13.86927832	     -4.72103260	     -7.69868570	      9.25718793	     -2.91520485	     -0.25191608	    -15.14976990	    -17.63968162	      8.09876483	      7.51859172	      4.23288521	      7.15439213	      2.85481842	     -9.30631371
      4.14500000	    -11.10501073	     -0.03648259	      1.91983208	     -1.80287864	     -0.02246505	     -0.71466720	     32.82712320	     -1.68967102	    -11.30286232	    -14.51692125	     -5.32905760	     -8.59739328	      8.31747927	     -2.67296852	     -0.63617615	    -15.15786318	    -18.66787976	      7.58057949	      7.61123001	      4.23910119	      7.32974856	      3.03388358	     -9.32261128
      4.15000000	    -11.18439366	     -0.22852550	      1.78975720	     -1.79663310	     -0.02272105	     -0.71347665	     32.91933207	     -1.39123440	    -11.02455609	    -15.16609630	     -5.80030762	     -9.19434174	      6.78041346	     -2.41417954	     -1.09008466	    -15.18511013	    -19.71724386	      6.98661289	      7.64353851	      4.31678302	      7.53784274	      3.31131880	     -9.23179140
      4.15500000	    -11.18565068	     -0.42570360	      1.82159268	     -1.79032467	     -0.02274010	     -0.71258133	     32.86734774	     -1.22155553	    -11.15294668	    -15.72001596	     -6.27108509	     -9.62583909	      6.46791639	     -2.17847968	     -1.54036492	    -15.01350592	    -20.82079686	      6.25579185	      7.53688832	      4.25037106	      7.68033398	      3.58197308	     -9.33752901
      4.16000000	    -11.23394321	     -0.57020984	      1.77986702	     -1.78419299	     -0.02278756	     -0.71149897	     32.87159046	     -1.03108992	    -10.97620507	    -16.26176265	     -6.75462129	    -10.25949437	      5.87757326	     -1.82897051	     -1.94861948	    -14.91776842	    -22.02660383	      5.50687950	      7.43355404	      4.23895795	      7.83483069	      3.79340275	     -9.40082579
      4.16500000	    -11.29292486	     -0.66677522	      1.60434182	     -1.77792367	     -0.02281864	     -0.71012168	     32.88520503	     -0.78255537	    -10.62349690	    -16.85167103	     -6.88546819	    -10.72232640	      4.08390672	     -1.47197983	     -2.34303676	    -15.12441802	    -23.23742812	      4.56798482	      7.38580234	      4.54682719	      8.01466133	      3.95825790	     -9.24199724
      4.17000000	    -11.23726465	     -0.80226144	      1.60627562	     -1.77165724	     -0.02257402	     -0.70912837	     32.68770073	     -0.63261895	    -10.63837713	    -17.27515869	     -7.13038580	    -11.13142311	      3.81806146	     -1.16923403	     -2.74284303	    -14.97618412	    -24.50479925	      3.55625337	      7.11958373	      4.48481213	      8.08130382	      4.15845584	     -9.32979447
      4.17500000	    -11.28336896	     -0.86202978	      1.46594476	     -1.76543342	     -0.02246365	     -0.70779462	     32.61966519	     -0.43622679	    -10.36894393	    -17.73237413	     -7.18200527	    -11.59281589	      2.79738044	     -0.73259710	     -3.09957567	    -15.09078196	    -25.81185161	      2.36345508	      6.87035072	      4.93301833	      8.23973778	      4.28045272	     -9.21493077
      4.18000000	    -11.18604315	     -0.97374195	      1.42974655	     -1.75920541	     -0.02208976	     -0.70673160	     32.31453320	     -0.26277726	    -10.31507186	    -18.04540594	     -7.23567368	    -11.95531907	      2.61370560	     -0.39805312	     -3.48078142	    -14.97471402	    -27.16972722	      1.15564693	      6.46407862	      4.86319061	      8.24976614	      4.46086178	     -9.23964891
      4.18500000	    -11.13638495	     -1.04795138	      1.34526802	     -1.75306907	     -0.02176123	     -0.70555422	     32.05676900	     -0.07771528	    -10.15745424	    -18.33622892	     -7.22231336	    -12.36968078	      2.36077560	      0.03108656	     -3.82896067	    -14.91094069	    -28.58053523	     -0.15595832	      5.99090237	      4.88382109	      8.29294546	      4.59899787	     -9.18937011
